HIERARCHY
ROOT Hips
{
	OFFSET -3.958830 18.904000 13.208200
	CHANNELS 6 Xposition Yposition Zposition Zrotation Yrotation Xrotation 
	JOINT LHipJoint
	{
		OFFSET 0.000000 0.000000 0.000000
		CHANNELS 3 Zrotation Yrotation Xrotation
		JOINT LeftUpLeg
		{
			OFFSET 1.800000 -1.400000 0.085000
			CHANNELS 3 Zrotation Yrotation Xrotation
			JOINT LeftLeg
			{
				OFFSET 2.215000 -6.000000 0.000000
				CHANNELS 3 Zrotation Yrotation Xrotation
				JOINT LeftFoot
				{
					OFFSET 2.500000 -6.900000 0.000000
					CHANNELS 3 Zrotation Yrotation Xrotation
					JOINT LeftToeBase
					{
						OFFSET 0.200000 -0.500000 1.950000
						CHANNELS 3 Zrotation Yrotation Xrotation
						End Site
						{
							OFFSET 0.000000 0.000000 0.000000
						}
					}
				}
			}
		}
	}
	JOINT RHipJoint
	{
		OFFSET 0.000000 0.000000 0.000000
		CHANNELS 3 Zrotation Yrotation Xrotation
		JOINT RightUpLeg
		{
			OFFSET -1.800000 -1.400000 0.085000
			CHANNELS 3 Zrotation Yrotation Xrotation
			JOINT RightLeg
			{
				OFFSET -2.215000 -6.000000 0.000000
				CHANNELS 3 Zrotation Yrotation Xrotation
				JOINT RightFoot
				{
					OFFSET -2.500000 -6.900000 0.000000
					CHANNELS 3 Zrotation Yrotation Xrotation
					JOINT RightToeBase
					{
						OFFSET -0.200000 -0.500000 1.950000
						CHANNELS 3 Zrotation Yrotation Xrotation
						End Site
						{
							OFFSET 0.000000 0.000000 0.000000
						}
					}
				}
			}
		}
	}
	JOINT LowerBack
	{
		OFFSET 0.000000 0.000000 0.000000
		CHANNELS 3 Zrotation Yrotation Xrotation
		JOINT Spine
		{
			OFFSET -0.087000 1.940000 -0.288900
			CHANNELS 3 Zrotation Yrotation Xrotation
			JOINT Spine1
			{
				OFFSET 0.000000 1.950000 0.060000
				CHANNELS 3 Zrotation Yrotation Xrotation
				JOINT Neck
				{
					OFFSET 0.000000 0.000000 0.000000
					CHANNELS 3 Zrotation Yrotation Xrotation
					JOINT Neck1
					{
						OFFSET 0.000000 1.600000 0.340000
						CHANNELS 3 Zrotation Yrotation Xrotation
						JOINT Head
						{
							OFFSET 0.000000 1.667000 -0.240000
							CHANNELS 3 Zrotation Yrotation Xrotation
							End Site
							{
								OFFSET 0.000000 0.000000 0.000000
							}
						}
					}
				}
				JOINT LeftShoulder
				{
					OFFSET 0.000000 0.000000 0.000000
					CHANNELS 3 Zrotation Yrotation Xrotation
					JOINT LeftArm
					{
						OFFSET 2.700000 1.550000 -0.730000
						CHANNELS 3 Zrotation Yrotation Xrotation
						JOINT LeftForeArm
						{
							OFFSET 5.450000 0.000000 0.000000
							CHANNELS 3 Zrotation Yrotation Xrotation
							JOINT LeftHand
							{
								OFFSET 3.450000 0.000000 0.000000
								CHANNELS 3 Zrotation Yrotation Xrotation
								JOINT LeftHandIndex1
								{
									OFFSET 0.750000 0.000000 0.000000
									CHANNELS 3 Zrotation Yrotation Xrotation
									End Site
									{
										OFFSET 0.000000 0.000000 0.000000
									}
								}
							}
						}
					}
				}
				JOINT RightShoulder
				{
					OFFSET 0.000000 0.000000 0.000000
					CHANNELS 3 Zrotation Yrotation Xrotation
					JOINT RightArm
					{
						OFFSET -2.700000 1.550000 -0.730000
						CHANNELS 3 Zrotation Yrotation Xrotation
						JOINT RightForeArm
						{
							OFFSET -5.450000 0.000000 0.000000
							CHANNELS 3 Zrotation Yrotation Xrotation
							JOINT RightHand
							{
								OFFSET -3.450000 0.000000 0.000000
								CHANNELS 3 Zrotation Yrotation Xrotation
								JOINT RightHandIndex1
								{
									OFFSET -0.750000 0.000000 0.000000
									CHANNELS 3 Zrotation Yrotation Xrotation
									End Site
									{
										OFFSET 0.000000 0.000000 0.000000
									}
								}
							}
						}
					}
				}
			}
		}
	}
}
MOTION
Frames: 7
Frame Time: 0.016667
-1.124360 17.206110 -1.983750 9.797980 5.549571 -15.309990 -16.017959 10.215031 8.157433 -29.474275 -23.751802 -66.571268 19.377238 -0.708950 37.680263 -0.054498 4.799222 2.693086 0.570290 0.473110 0.368750 17.966402 -8.977332 1.497951 -16.773098 3.934781 -2.765026 15.777947 -9.100916 22.276851 -0.768727 -5.275756 2.524036 0.149320 -0.231050 0.053850 -2.116508 -2.662895 -9.515267 -3.618234 7.588171 48.063094 0.458961 6.022106 8.384766 4.889772 -4.576971 -14.749997 -8.199481 3.121378 47.859869 1.239400 -2.694350 -26.665400 -25.812297 -20.322982 9.433441 -48.759373 12.142073 -16.121647 -32.843093 -22.606285 0.073877 -3.067162 3.006211 0.661820 -0.342910 0.308370 0.093120 16.577681 35.280065 8.672542 23.633461 28.366270 -18.235330 -109.391157 47.595607 -76.588124 2.170205 -0.615130 0.045120 0.236150 -0.116660 -0.160950 
-1.135050 17.232930 -1.953210 10.653964 6.827565 -16.126476 -16.072351 9.994292 8.371702 -25.804714 -26.139824 -72.355158 18.630417 -0.530599 47.921010 0.260197 6.749886 2.033747 0.521070 0.420810 0.319760 17.978718 -8.826230 1.393466 -17.718758 3.808890 -0.616840 15.831688 -9.175158 20.984207 -0.752764 -5.394194 2.506059 0.136360 -0.162400 0.047980 -2.033300 -2.699583 -9.563701 -5.240658 8.414065 48.366404 1.201146 6.170101 9.213448 4.468178 -4.353044 -14.467947 -7.580679 2.738610 45.677649 2.182300 -3.012240 -25.015330 -23.086328 -19.684635 9.563306 -48.126114 12.553697 -16.393761 -37.695211 -23.475747 0.721067 -3.145462 3.025802 0.621930 -0.292750 0.251190 0.092280 14.586806 34.718164 8.251847 21.379957 27.975106 -17.390322 -112.719997 43.442011 -76.997646 2.125483 -0.835969 0.018570 0.250120 -0.084620 -0.150260 
-1.150530 17.295900 -1.893230 12.105441 6.201454 -17.276457 -16.102873 10.089141 8.209812 -19.639284 -26.048975 -79.178974 15.348715 1.904338 60.002028 0.661270 9.134925 1.257125 0.481220 0.378780 0.288560 17.948164 -8.830736 1.323622 -18.679698 3.769529 1.580585 14.779813 -8.932876 19.716903 -0.723124 -5.445635 2.509384 0.126370 -0.111010 0.054450 -1.931306 -2.779294 -9.452716 -8.013765 10.629657 47.914804 2.305504 7.316773 10.235996 4.007353 -3.610098 -14.192914 -5.913260 2.310741 43.660699 1.987790 -2.638090 -23.154900 -20.111454 -18.501464 9.537628 -47.056953 13.321516 -16.525035 -44.501847 -23.609762 1.438088 -3.226395 3.060391 0.583010 -0.237420 0.206130 0.089080 12.352823 33.506439 8.006947 19.909108 27.863064 -16.234671 -116.617943 39.590598 -78.234160 2.085286 -1.031774 -0.000110 0.246540 -0.061550 -0.148990 
-1.166580 17.393630 -1.834530 13.480783 5.347572 -17.896320 -16.128613 10.245426 7.964209 -13.704207 -23.963103 -82.848455 10.861872 6.537885 69.941756 1.075397 11.310151 0.602158 0.451540 0.357360 0.259010 17.911634 -8.862398 1.260126 -19.301749 3.489705 3.076201 13.267235 -8.492041 18.282287 -0.681900 -5.384221 2.553969 0.126150 -0.067530 0.045270 -1.826446 -2.905400 -9.305545 -11.000198 12.922161 46.476060 3.752172 8.564622 11.211507 3.424013 -2.899058 -13.780516 -4.432557 2.199096 42.133699 2.339740 -2.275900 -21.855750 -16.808523 -16.738853 9.152023 -46.115341 13.325774 -16.114223 -51.171817 -22.561580 1.852309 -3.295974 3.085611 0.551560 -0.196300 0.166610 0.086530 10.038470 31.525030 7.777304 18.996000 27.821360 -14.749567 -120.592825 35.687101 -79.129095 2.038715 -1.200406 -0.019270 0.256170 -0.042210 -0.146670 
-1.177360 17.523260 -1.786670 14.475788 4.149545 -18.180703 -16.167355 10.414511 7.747537 -8.897094 -20.990427 -83.360170 5.981428 12.310593 76.271050 1.482433 13.115377 0.107815 0.441640 0.343110 0.262540 17.866067 -8.874930 1.190964 -19.304353 3.000404 4.010552 11.354844 -7.887189 16.755795 -0.641524 -5.216924 2.633239 0.120420 -0.047230 0.052020 -1.692276 -3.116018 -9.159093 -13.845208 15.043070 44.541798 5.476282 9.747720 11.954708 2.970831 -2.056861 -13.449409 -2.819186 2.097496 41.304807 2.335890 -1.821730 -20.679100 -14.023783 -14.920010 8.699735 -45.199533 13.284259 -15.559167 -57.173628 -20.791037 1.799481 -3.342293 3.117166 0.528040 -0.166020 0.147770 0.082970 8.012542 29.238493 7.665372 18.216527 27.334162 -13.364268 -124.395975 32.544838 -80.272415 2.007288 -1.332964 -0.020870 0.248100 -0.040610 -0.149560 
-1.181900 17.668080 -1.743950 14.884036 2.874988 -18.282544 -16.188194 10.540659 7.551824 -5.343654 -18.007645 -81.099824 2.491484 17.419425 80.307276 1.845032 14.580563 -0.260689 0.427250 0.327420 0.252870 17.837646 -8.907428 1.142557 -18.858442 2.446457 4.409508 9.622342 -7.359447 15.484468 -0.612571 -5.050096 2.707931 0.112770 -0.024830 0.069250 -1.611192 -3.197817 -9.031948 -15.794306 16.367694 42.349462 6.608355 10.716726 12.656926 2.761655 -1.194027 -13.116543 -1.165846 2.028097 41.190810 1.990740 -1.411370 -19.567530 -11.742901 -12.998062 8.113194 -44.017417 13.125883 -14.839727 -62.036306 -18.866304 1.469158 -3.379676 3.144198 0.512900 -0.134740 0.136470 0.081830 6.049370 26.657764 7.618106 18.208412 26.976441 -11.867304 -127.825553 29.644804 -80.932161 1.970704 -1.427708 -0.020760 0.241590 -0.028230 -0.149560 
-1.177350 17.838600 -1.726780 15.118342 1.648488 -19.025770 -16.182012 10.852530 7.224206 -3.891990 -15.282808 -74.975710 0.580167 20.613230 81.444552 2.040826 15.306119 -0.441090 0.425500 0.315820 0.251090 17.792730 -8.989644 1.149525 -18.488324 1.948161 4.807535 8.057686 -6.942977 14.648283 -0.608411 -4.913565 2.755649 0.104190 -0.031460 0.083310 -1.550879 -3.411039 -8.890513 -17.101689 17.065218 41.362231 7.176819 11.350475 13.250846 2.731778 -1.145281 -12.954786 -1.172470 2.337616 42.097192 2.033710 -1.468860 -19.440190 -10.164984 -11.570684 7.629827 -42.707687 13.078933 -14.595588 -66.664353 -17.039027 0.726178 -3.374372 3.169862 0.531370 -0.139360 0.144490 0.075360 4.482929 25.094951 7.749851 17.238499 26.045046 -11.088686 -130.680321 27.638008 -81.704123 1.949678 -1.481447 -0.018520 0.231260 -0.016290 -0.155280 
